<svg xmlns="http://www.w3.org/2000/svg" viewBox="0 0 560 160" role="img" aria-label="Law Expert — South Africa's legal directory">
  <rect width="560" height="160" fill="#040D33"/>
  <g transform="translate(88,80)" fill="none" stroke-linecap="round" stroke-width="1.6">
    <path stroke="#C9A24B" d="M -18 -38 C -22 -14 -24 6 -14 20 C -6 30 14 34 30 26"/>
    <path stroke="#CDA855" d="M -13 -40 C -17 -15 -19 6 -9 21 C -1 31 17 34 32 25"/>
    <path stroke="#D4B366" d="M -8 -42 C -12 -16 -14 7 -4 22 C 4 32 20 34 34 23"/>
    <path stroke="#DCC17E" d="M -3 -43 C -7 -17 -9 8 1 23 C 9 33 23 33 36 21"/>
    <path stroke="#E4CE97" d="M 2 -44 C -2 -18 -4 9 6 24 C 13 33 26 32 38 19"/>
    <path stroke="#EBDDB4" d="M 7 -44 C 3 -18 1 10 11 24 C 17 32 29 31 39 17"/>
    <path stroke="#F0E6CF" d="M 12 -44 C 8 -18 6 10 16 24 C 21 31 31 29 40 15"/>
  </g>
  <text x="160" y="76" font-family="Inter, system-ui, sans-serif" font-size="28" font-weight="800" fill="#FFFFFF" letter-spacing="3">LAW EXPERT</text>
  <text x="162" y="102" font-family="Inter, system-ui, sans-serif" font-size="11" font-weight="500" fill="#C9A24B" letter-spacing="6">SOUTH AFRICA'S LEGAL DIRECTORY</text>
</svg>
